{
	"asset":{
		"generator":"Khronos glTF Blender I/O v3.6.27",
		"version":"2.0"
	},
	"scene":0,
	"scenes":[
		{
			"name":"Scene",
			"nodes":[
				25
			]
		}
	],
	"nodes":[
		{
			"mesh":0,
			"name":"Cube.001"
		},
		{
			"name":"Bone.012",
			"rotation":[
				-0.021026086062192917,
				0.005619654897600412,
				0.14424218237400055,
				0.9893031120300293
			],
			"scale":[
				0.9999999403953552,
				0.9999999403953552,
				0.9999998807907104
			],
			"translation":[
				-2.3096799850463867e-07,
				0.24824762344360352,
				-2.9802322387695312e-08
			]
		},
		{
			"children":[
				1
			],
			"name":"Bone.013",
			"rotation":[
				-3.259629011154175e-09,
				-2.60770320892334e-08,
				-1.30385160446167e-08,
				1
			],
			"scale":[
				0.9999999403953552,
				1,
				1
			],
			"translation":[
				1.862645149230957e-07,
				0.24824760854244232,
				-1.4901161193847656e-08
			]
		},
		{
			"children":[
				2
			],
			"name":"Bone.003",
			"rotation":[
				0.036041565239429474,
				0.009212609380483627,
				0.2589564621448517,
				0.9651723504066467
			],
			"scale":[
				1,
				0.9999998807907104,
				0.9999999403953552
			],
			"translation":[
				-1.1920928955078125e-07,
				0.48405012488365173,
				5.960464477539063e-08
			]
		},
		{
			"children":[
				3
			],
			"name":"Bone.002",
			"rotation":[
				0.08517852425575256,
				-0.01866982877254486,
				-0.6302658319473267,
				0.771466851234436
			],
			"scale":[
				1,
				0.9999999403953552,
				0.9999998807907104
			],
			"translation":[
				7.275957614183426e-10,
				0.48107266426086426,
				-1.862645149230957e-09
			]
		},
		{
			"name":"Bone.014",
			"rotation":[
				0.023160362616181374,
				0.0024064371827989817,
				0.008698462508618832,
				0.9996910691261292
			],
			"scale":[
				1,
				1,
				0.9999999403953552
			],
			"translation":[
				1.4901161193847656e-08,
				0.27162617444992065,
				-5.960464477539063e-08
			]
		},
		{
			"children":[
				5
			],
			"name":"Bone.015",
			"rotation":[
				0.10054049640893936,
				-0.01960691250860691,
				0.05283660069108009,
				0.9933355450630188
			],
			"scale":[
				0.9999999403953552,
				1,
				1
			],
			"translation":[
				2.4028122425079346e-07,
				0.2816369831562042,
				2.60770320892334e-08
			]
		},
		{
			"children":[
				6
			],
			"name":"Bone.008",
			"rotation":[
				0.15161366760730743,
				-0.0018609710969030857,
				0.1441262662410736,
				0.9778739213943481
			],
			"scale":[
				1,
				1,
				1.0000001192092896
			],
			"translation":[
				4.842877388000488e-08,
				0.7020963430404663,
				-2.60770320892334e-08
			]
		},
		{
			"children":[
				7
			],
			"name":"Bone.004",
			"rotation":[
				-0.08921150863170624,
				0.061748992651700974,
				-0.22632873058319092,
				0.9679895043373108
			],
			"scale":[
				1,
				0.9999998807907104,
				0.9999999403953552
			],
			"translation":[
				7.275957614183426e-10,
				0.48107266426086426,
				-1.862645149230957e-09
			]
		},
		{
			"name":"Bone.016",
			"rotation":[
				0.31528446078300476,
				-0.059798914939165115,
				-0.11252201348543167,
				0.9404034614562988
			],
			"scale":[
				0.9999999403953552,
				1,
				1
			],
			"translation":[
				9.883660823106766e-08,
				0.3013467788696289,
				4.246830940246582e-07
			]
		},
		{
			"children":[
				9
			],
			"name":"Bone.017",
			"rotation":[
				0.5359503030776978,
				-0.17217762768268585,
				0.049097537994384766,
				0.8250464200973511
			],
			"scale":[
				0.9999999403953552,
				1,
				1
			],
			"translation":[
				-4.0978193283081055e-08,
				0.3013470768928528,
				2.9802322387695312e-08
			]
		},
		{
			"children":[
				10
			],
			"name":"Bone.009",
			"rotation":[
				-0.04873962327837944,
				0.030377190560102463,
				0.00426464481279254,
				0.998340368270874
			],
			"scale":[
				1,
				0.9999998807907104,
				0.9999999403953552
			],
			"translation":[
				-7.636845111846924e-08,
				0.6617864966392517,
				3.818422555923462e-08
			]
		},
		{
			"children":[
				11
			],
			"name":"Bone.005",
			"rotation":[
				-0.1625327169895172,
				0.09923271834850311,
				-0.025576017796993256,
				0.9813673496246338
			],
			"scale":[
				1,
				0.9999999403953552,
				0.9999998807907104
			],
			"translation":[
				7.275957614183426e-10,
				0.48107266426086426,
				-1.862645149230957e-09
			]
		},
		{
			"name":"Bone.018",
			"rotation":[
				0.3229406774044037,
				-0.1474413126707077,
				-0.14923156797885895,
				0.9228761196136475
			],
			"scale":[
				1,
				0.9999998807907104,
				0.9999999403953552
			],
			"translation":[
				1.1385418474674225e-07,
				0.26892566680908203,
				3.0547380447387695e-07
			]
		},
		{
			"children":[
				13
			],
			"name":"Bone.019",
			"rotation":[
				0.5003523230552673,
				-0.09550981968641281,
				-0.03741021826863289,
				0.8597243428230286
			],
			"scale":[
				1,
				1.0000001192092896,
				1
			],
			"translation":[
				3.2776733860373497e-07,
				0.2970236837863922,
				3.3527612686157227e-08
			]
		},
		{
			"children":[
				14
			],
			"name":"Bone.010",
			"rotation":[
				0.1445583552122116,
				-0.1574101746082306,
				-0.04597599804401398,
				0.975813090801239
			],
			"scale":[
				1,
				0.9999999403953552,
				0.9999999403953552
			],
			"translation":[
				-2.0573497749865055e-07,
				0.653096616268158,
				-6.653135642409325e-08
			]
		},
		{
			"children":[
				15
			],
			"name":"Bone.006",
			"rotation":[
				-0.22379785776138306,
				0.16370566189289093,
				0.13433997333049774,
				0.9513505101203918
			],
			"scale":[
				0.9999998807907104,
				1,
				0.9999998807907104
			],
			"translation":[
				7.275957614183426e-10,
				0.48107266426086426,
				-1.862645149230957e-09
			]
		},
		{
			"name":"Bone.020",
			"rotation":[
				0.19524165987968445,
				0.2945466935634613,
				-0.13390818238258362,
				0.9258463978767395
			],
			"scale":[
				1,
				1,
				0.9999998211860657
			],
			"translation":[
				1.3783574104309082e-07,
				0.2242830991744995,
				1.7881393432617188e-07
			]
		},
		{
			"children":[
				17
			],
			"name":"Bone.021",
			"rotation":[
				0.18476171791553497,
				0.08631958812475204,
				-0.2917669415473938,
				0.9344967007637024
			],
			"scale":[
				0.9999998807907104,
				0.9999998807907104,
				1
			],
			"translation":[
				-1.341104507446289e-07,
				0.23093736171722412,
				0
			]
		},
		{
			"children":[
				18
			],
			"name":"Bone.011",
			"rotation":[
				0.14374394714832306,
				-0.31834495067596436,
				-0.17691922187805176,
				0.920159637928009
			],
			"scale":[
				1,
				1.0000001192092896,
				1
			],
			"translation":[
				-4.0978193283081055e-08,
				0.677811861038208,
				-1.4901161193847656e-08
			]
		},
		{
			"children":[
				19
			],
			"name":"Bone.007",
			"rotation":[
				-0.10344959050416946,
				0.05108431726694107,
				0.36731886863708496,
				0.9229114055633545
			],
			"scale":[
				1,
				1,
				0.9999999403953552
			],
			"translation":[
				7.275957614183426e-10,
				0.48107266426086426,
				-1.862645149230957e-09
			]
		},
		{
			"children":[
				4,
				8,
				12,
				16,
				20
			],
			"name":"Bone.001",
			"rotation":[
				4.889788129958106e-08,
				-2.6078870618562178e-08,
				-0.011870475485920906,
				0.9999295473098755
			],
			"scale":[
				0.9999999403953552,
				1,
				1
			],
			"translation":[
				-3.5390257835388184e-08,
				1.382046103477478,
				7.450580596923828e-09
			]
		},
		{
			"children":[
				21
			],
			"name":"Bone",
			"rotation":[
				2.4680069543592253e-08,
				2.14204369797244e-08,
				0.0012340667890384793,
				0.9999992251396179
			],
			"scale":[
				1,
				0.9999998807907104,
				1
			],
			"translation":[
				-1.0186340659856796e-10,
				7.8580342233181e-10,
				2.473825588822365e-10
			]
		},
		{
			"name":"neutral_bone",
			"rotation":[
				-0.7071067690849304,
				0,
				0,
				0.7071067690849304
			]
		},
		{
			"children":[
				0
			],
			"mesh":1,
			"name":"Cube",
			"skin":0
		},
		{
			"children":[
				24,
				22,
				23
			],
			"name":"Armature",
			"rotation":[
				0.012849302962422371,
				0.07369630038738251,
				0.4985276460647583,
				0.8636399507522583
			],
			"translation":[
				-0.0004420280456542969,
				0.0381617546081543,
				-0.007851660251617432
			]
		}
	],
	"materials":[
		{
			"doubleSided":true,
			"name":"Material.002",
			"pbrMetallicRoughness":{
				"baseColorFactor":[
					0.12211750447750092,
					0.2607164680957794,
					0.8000000715255737,
					1
				],
				"metallicFactor":0,
				"roughnessFactor":0.5
			}
		},
		{
			"doubleSided":true,
			"name":"Material.001",
			"pbrMetallicRoughness":{
				"baseColorFactor":[
					0.8000000715255737,
					0.4946030080318451,
					0.265602707862854,
					1
				],
				"metallicFactor":0,
				"roughnessFactor":0.5
			}
		},
		{
			"doubleSided":true,
			"name":"Material.006",
			"pbrMetallicRoughness":{
				"baseColorFactor":[
					0.008851094171404839,
					0.008023194968700409,
					0.00675375247374177,
					1
				],
				"metallicFactor":0,
				"roughnessFactor":0.5
			}
		},
		{
			"doubleSided":true,
			"name":"Material.003",
			"pbrMetallicRoughness":{
				"baseColorFactor":[
					0.0034272957127541304,
					0.003120503621175885,
					0.013968035578727722,
					1
				],
				"metallicFactor":0,
				"roughnessFactor":0.5
			}
		},
		{
			"doubleSided":true,
			"name":"Material.005",
			"pbrMetallicRoughness":{
				"baseColorFactor":[
					0.008023194968700409,
					0.006995412986725569,
					0.006995412986725569,
					1
				],
				"metallicFactor":0,
				"roughnessFactor":0.5
			}
		},
		{
			"doubleSided":true,
			"name":"Material.004",
			"pbrMetallicRoughness":{
				"baseColorFactor":[
					0.007499032653868198,
					0.006995412986725569,
					0.010960093699395657,
					1
				],
				"metallicFactor":0,
				"roughnessFactor":0.5
			}
		},
		{
			"doubleSided":true,
			"name":"Material.007",
			"pbrMetallicRoughness":{}
		}
	],
	"meshes":[
		{
			"name":"Cube.002",
			"primitives":[
				{
					"attributes":{
						"POSITION":0,
						"NORMAL":1
					},
					"indices":2,
					"material":0
				}
			]
		},
		{
			"name":"Cube.001",
			"primitives":[
				{
					"attributes":{
						"POSITION":3,
						"NORMAL":4,
						"TEXCOORD_0":5,
						"JOINTS_0":6,
						"WEIGHTS_0":7
					},
					"indices":8,
					"material":1
				},
				{
					"attributes":{
						"POSITION":9,
						"NORMAL":10,
						"TEXCOORD_0":11,
						"JOINTS_0":12,
						"WEIGHTS_0":13
					},
					"indices":14,
					"material":2
				},
				{
					"attributes":{
						"POSITION":15,
						"NORMAL":16,
						"TEXCOORD_0":17,
						"JOINTS_0":18,
						"WEIGHTS_0":19
					},
					"indices":20,
					"material":3
				},
				{
					"attributes":{
						"POSITION":21,
						"NORMAL":22,
						"TEXCOORD_0":23,
						"JOINTS_0":24,
						"WEIGHTS_0":25
					},
					"indices":14,
					"material":4
				},
				{
					"attributes":{
						"POSITION":26,
						"NORMAL":27,
						"TEXCOORD_0":28,
						"JOINTS_0":29,
						"WEIGHTS_0":30
					},
					"indices":14,
					"material":5
				},
				{
					"attributes":{
						"POSITION":31,
						"NORMAL":32,
						"TEXCOORD_0":33,
						"JOINTS_0":34,
						"WEIGHTS_0":35
					},
					"indices":36,
					"material":6
				}
			]
		}
	],
	"skins":[
		{
			"inverseBindMatrices":37,
			"joints":[
				22,
				21,
				4,
				3,
				2,
				1,
				8,
				7,
				6,
				5,
				12,
				11,
				10,
				9,
				16,
				15,
				14,
				13,
				20,
				19,
				18,
				17,
				23
			],
			"name":"Armature"
		}
	],
	"accessors":[
		{
			"bufferView":0,
			"componentType":5126,
			"count":402,
			"max":[
				0.3155480623245239,
				1.149147391319275,
				0.31494441628456116
			],
			"min":[
				-0.3231549561023712,
				-0.03272191435098648,
				-0.31307828426361084
			],
			"type":"VEC3"
		},
		{
			"bufferView":1,
			"componentType":5126,
			"count":402,
			"type":"VEC3"
		},
		{
			"bufferView":2,
			"componentType":5123,
			"count":2208,
			"type":"SCALAR"
		},
		{
			"bufferView":3,
			"componentType":5126,
			"count":2257,
			"max":[
				-0.033120084553956985,
				2.120683431625366,
				0.4182164669036865
			],
			"min":[
				-3.083534002304077,
				-0.023588238283991814,
				-0.17676189541816711
			],
			"type":"VEC3"
		},
		{
			"bufferView":4,
			"componentType":5126,
			"count":2257,
			"type":"VEC3"
		},
		{
			"bufferView":5,
			"componentType":5126,
			"count":2257,
			"type":"VEC2"
		},
		{
			"bufferView":6,
			"componentType":5121,
			"count":2257,
			"type":"VEC4"
		},
		{
			"bufferView":7,
			"componentType":5126,
			"count":2257,
			"type":"VEC4"
		},
		{
			"bufferView":8,
			"componentType":5123,
			"count":13152,
			"type":"SCALAR"
		},
		{
			"bufferView":9,
			"componentType":5126,
			"count":96,
			"max":[
				-1.6315560340881348,
				2.026972532272339,
				0.35434967279434204
			],
			"min":[
				-1.6512179374694824,
				1.9565181732177734,
				0.32379475235939026
			],
			"type":"VEC3"
		},
		{
			"bufferView":10,
			"componentType":5126,
			"count":96,
			"type":"VEC3"
		},
		{
			"bufferView":11,
			"componentType":5126,
			"count":96,
			"type":"VEC2"
		},
		{
			"bufferView":12,
			"componentType":5121,
			"count":96,
			"type":"VEC4"
		},
		{
			"bufferView":13,
			"componentType":5126,
			"count":96,
			"type":"VEC4"
		},
		{
			"bufferView":14,
			"componentType":5123,
			"count":144,
			"type":"SCALAR"
		},
		{
			"bufferView":15,
			"componentType":5126,
			"count":720,
			"max":[
				-1.636154294013977,
				2.228581666946411,
				0.5367863774299622
			],
			"min":[
				-2.5445926189422607,
				0.597536027431488,
				0.3239675760269165
			],
			"type":"VEC3"
		},
		{
			"bufferView":16,
			"componentType":5126,
			"count":720,
			"type":"VEC3"
		},
		{
			"bufferView":17,
			"componentType":5126,
			"count":720,
			"type":"VEC2"
		},
		{
			"bufferView":18,
			"componentType":5121,
			"count":720,
			"type":"VEC4"
		},
		{
			"bufferView":19,
			"componentType":5126,
			"count":720,
			"type":"VEC4"
		},
		{
			"bufferView":20,
			"componentType":5123,
			"count":1080,
			"type":"SCALAR"
		},
		{
			"bufferView":21,
			"componentType":5126,
			"count":96,
			"max":[
				-1.641243815422058,
				1.8927359580993652,
				0.36689645051956177
			],
			"min":[
				-1.660905361175537,
				1.8222814798355103,
				0.3363415598869324
			],
			"type":"VEC3"
		},
		{
			"bufferView":22,
			"componentType":5126,
			"count":96,
			"type":"VEC3"
		},
		{
			"bufferView":23,
			"componentType":5126,
			"count":96,
			"type":"VEC2"
		},
		{
			"bufferView":24,
			"componentType":5121,
			"count":96,
			"type":"VEC4"
		},
		{
			"bufferView":25,
			"componentType":5126,
			"count":96,
			"type":"VEC4"
		},
		{
			"bufferView":26,
			"componentType":5126,
			"count":96,
			"max":[
				-1.6673471927642822,
				1.5563660860061646,
				0.3995230197906494
			],
			"min":[
				-1.6870090961456299,
				1.4859117269515991,
				0.36896812915802
			],
			"type":"VEC3"
		},
		{
			"bufferView":27,
			"componentType":5126,
			"count":96,
			"type":"VEC3"
		},
		{
			"bufferView":28,
			"componentType":5126,
			"count":96,
			"type":"VEC2"
		},
		{
			"bufferView":29,
			"componentType":5121,
			"count":96,
			"type":"VEC4"
		},
		{
			"bufferView":30,
			"componentType":5126,
			"count":96,
			"type":"VEC4"
		},
		{
			"bufferView":31,
			"componentType":5126,
			"count":43,
			"max":[
				-1.6555862426757812,
				2.1936349868774414,
				0.5358858108520508
			],
			"min":[
				-2.5240230560302734,
				0.6344714164733887,
				0.36334484815597534
			],
			"type":"VEC3"
		},
		{
			"bufferView":32,
			"componentType":5126,
			"count":43,
			"type":"VEC3"
		},
		{
			"bufferView":33,
			"componentType":5126,
			"count":43,
			"type":"VEC2"
		},
		{
			"bufferView":34,
			"componentType":5121,
			"count":43,
			"type":"VEC4"
		},
		{
			"bufferView":35,
			"componentType":5126,
			"count":43,
			"type":"VEC4"
		},
		{
			"bufferView":36,
			"componentType":5123,
			"count":120,
			"type":"SCALAR"
		},
		{
			"bufferView":37,
			"componentType":5126,
			"count":23,
			"type":"MAT4"
		}
	],
	"bufferViews":[
		{
			"buffer":0,
			"byteLength":4824,
			"byteOffset":0,
			"target":34962
		},
		{
			"buffer":0,
			"byteLength":4824,
			"byteOffset":4824,
			"target":34962
		},
		{
			"buffer":0,
			"byteLength":4416,
			"byteOffset":9648,
			"target":34963
		},
		{
			"buffer":0,
			"byteLength":27084,
			"byteOffset":14064,
			"target":34962
		},
		{
			"buffer":0,
			"byteLength":27084,
			"byteOffset":41148,
			"target":34962
		},
		{
			"buffer":0,
			"byteLength":18056,
			"byteOffset":68232,
			"target":34962
		},
		{
			"buffer":0,
			"byteLength":9028,
			"byteOffset":86288,
			"target":34962
		},
		{
			"buffer":0,
			"byteLength":36112,
			"byteOffset":95316,
			"target":34962
		},
		{
			"buffer":0,
			"byteLength":26304,
			"byteOffset":131428,
			"target":34963
		},
		{
			"buffer":0,
			"byteLength":1152,
			"byteOffset":157732,
			"target":34962
		},
		{
			"buffer":0,
			"byteLength":1152,
			"byteOffset":158884,
			"target":34962
		},
		{
			"buffer":0,
			"byteLength":768,
			"byteOffset":160036,
			"target":34962
		},
		{
			"buffer":0,
			"byteLength":384,
			"byteOffset":160804,
			"target":34962
		},
		{
			"buffer":0,
			"byteLength":1536,
			"byteOffset":161188,
			"target":34962
		},
		{
			"buffer":0,
			"byteLength":288,
			"byteOffset":162724,
			"target":34963
		},
		{
			"buffer":0,
			"byteLength":8640,
			"byteOffset":163012,
			"target":34962
		},
		{
			"buffer":0,
			"byteLength":8640,
			"byteOffset":171652,
			"target":34962
		},
		{
			"buffer":0,
			"byteLength":5760,
			"byteOffset":180292,
			"target":34962
		},
		{
			"buffer":0,
			"byteLength":2880,
			"byteOffset":186052,
			"target":34962
		},
		{
			"buffer":0,
			"byteLength":11520,
			"byteOffset":188932,
			"target":34962
		},
		{
			"buffer":0,
			"byteLength":2160,
			"byteOffset":200452,
			"target":34963
		},
		{
			"buffer":0,
			"byteLength":1152,
			"byteOffset":202612,
			"target":34962
		},
		{
			"buffer":0,
			"byteLength":1152,
			"byteOffset":203764,
			"target":34962
		},
		{
			"buffer":0,
			"byteLength":768,
			"byteOffset":204916,
			"target":34962
		},
		{
			"buffer":0,
			"byteLength":384,
			"byteOffset":205684,
			"target":34962
		},
		{
			"buffer":0,
			"byteLength":1536,
			"byteOffset":206068,
			"target":34962
		},
		{
			"buffer":0,
			"byteLength":1152,
			"byteOffset":207604,
			"target":34962
		},
		{
			"buffer":0,
			"byteLength":1152,
			"byteOffset":208756,
			"target":34962
		},
		{
			"buffer":0,
			"byteLength":768,
			"byteOffset":209908,
			"target":34962
		},
		{
			"buffer":0,
			"byteLength":384,
			"byteOffset":210676,
			"target":34962
		},
		{
			"buffer":0,
			"byteLength":1536,
			"byteOffset":211060,
			"target":34962
		},
		{
			"buffer":0,
			"byteLength":516,
			"byteOffset":212596,
			"target":34962
		},
		{
			"buffer":0,
			"byteLength":516,
			"byteOffset":213112,
			"target":34962
		},
		{
			"buffer":0,
			"byteLength":344,
			"byteOffset":213628,
			"target":34962
		},
		{
			"buffer":0,
			"byteLength":172,
			"byteOffset":213972,
			"target":34962
		},
		{
			"buffer":0,
			"byteLength":688,
			"byteOffset":214144,
			"target":34962
		},
		{
			"buffer":0,
			"byteLength":240,
			"byteOffset":214832,
			"target":34963
		},
		{
			"buffer":0,
			"byteLength":1472,
			"byteOffset":215072
		}
	],
	"buffers":[
		{
			"byteLength":216544,
			"uri":"data:application/octet-stream;base64,"
		}
	]
}
