{
	"asset":{
		"generator":"Khronos glTF Blender I/O v3.6.27",
		"version":"2.0"
	},
	"scene":0,
	"scenes":[
		{
			"name":"Scene",
			"nodes":[
				1
			]
		}
	],
	"nodes":[
		{
			"mesh":0,
			"name":"Cube.001"
		},
		{
			"children":[
				0
			],
			"mesh":1,
			"name":"Cube",
			"rotation":[
				0.012849302962422371,
				0.07369630038738251,
				0.4985276460647583,
				0.8636399507522583
			],
			"translation":[
				-0.0004420264158397913,
				0.0381617546081543,
				-0.007851660251617432
			]
		}
	],
	"materials":[
		{
			"doubleSided":true,
			"name":"Material.002",
			"pbrMetallicRoughness":{
				"baseColorFactor":[
					0.12211750447750092,
					0.2607164680957794,
					0.8000000715255737,
					1
				],
				"metallicFactor":0,
				"roughnessFactor":0.5
			}
		},
		{
			"doubleSided":true,
			"name":"Material.001",
			"pbrMetallicRoughness":{
				"baseColorFactor":[
					0.8000000715255737,
					0.4946030080318451,
					0.265602707862854,
					1
				],
				"metallicFactor":0,
				"roughnessFactor":0.5
			}
		},
		{
			"doubleSided":true,
			"name":"Material.006",
			"pbrMetallicRoughness":{
				"baseColorFactor":[
					0.008851094171404839,
					0.008023194968700409,
					0.00675375247374177,
					1
				],
				"metallicFactor":0,
				"roughnessFactor":0.5
			}
		},
		{
			"doubleSided":true,
			"name":"Material.003",
			"pbrMetallicRoughness":{
				"baseColorFactor":[
					0.0034272957127541304,
					0.003120503621175885,
					0.013968035578727722,
					1
				],
				"metallicFactor":0,
				"roughnessFactor":0.5
			}
		},
		{
			"doubleSided":true,
			"name":"Material.005",
			"pbrMetallicRoughness":{
				"baseColorFactor":[
					0.008023194968700409,
					0.006995412986725569,
					0.006995412986725569,
					1
				],
				"metallicFactor":0,
				"roughnessFactor":0.5
			}
		},
		{
			"doubleSided":true,
			"name":"Material.004",
			"pbrMetallicRoughness":{
				"baseColorFactor":[
					0.007499032653868198,
					0.006995412986725569,
					0.010960093699395657,
					1
				],
				"metallicFactor":0,
				"roughnessFactor":0.5
			}
		},
		{
			"doubleSided":true,
			"name":"Material.007",
			"pbrMetallicRoughness":{}
		}
	],
	"meshes":[
		{
			"name":"Cube.002",
			"primitives":[
				{
					"attributes":{
						"POSITION":0,
						"NORMAL":1
					},
					"indices":2,
					"material":0
				}
			]
		},
		{
			"name":"Cube.001",
			"primitives":[
				{
					"attributes":{
						"POSITION":3,
						"NORMAL":4,
						"TEXCOORD_0":5
					},
					"indices":6,
					"material":1
				},
				{
					"attributes":{
						"POSITION":7,
						"NORMAL":8,
						"TEXCOORD_0":9
					},
					"indices":10,
					"material":2
				},
				{
					"attributes":{
						"POSITION":11,
						"NORMAL":12,
						"TEXCOORD_0":13
					},
					"indices":14,
					"material":3
				},
				{
					"attributes":{
						"POSITION":15,
						"NORMAL":16,
						"TEXCOORD_0":17
					},
					"indices":10,
					"material":4
				},
				{
					"attributes":{
						"POSITION":18,
						"NORMAL":19,
						"TEXCOORD_0":20
					},
					"indices":10,
					"material":5
				},
				{
					"attributes":{
						"POSITION":21,
						"NORMAL":22,
						"TEXCOORD_0":23
					},
					"indices":24,
					"material":6
				}
			]
		}
	],
	"accessors":[
		{
			"bufferView":0,
			"componentType":5126,
			"count":112,
			"max":[
				0.23720404505729675,
				1.1504205465316772,
				0.23589420318603516
			],
			"min":[
				-0.24538660049438477,
				0.035942696034908295,
				-0.2339603453874588
			],
			"type":"VEC3"
		},
		{
			"bufferView":1,
			"componentType":5126,
			"count":112,
			"type":"VEC3"
		},
		{
			"bufferView":2,
			"componentType":5123,
			"count":264,
			"type":"SCALAR"
		},
		{
			"bufferView":3,
			"componentType":5126,
			"count":1151,
			"max":[
				0.8935650587081909,
				3.500121831893921,
				0.24572288990020752
			],
			"min":[
				-0.7415579557418823,
				0.035942696034908295,
				-0.2339603453874588
			],
			"type":"VEC3"
		},
		{
			"bufferView":4,
			"componentType":5126,
			"count":1151,
			"type":"VEC3"
		},
		{
			"bufferView":5,
			"componentType":5126,
			"count":1151,
			"type":"VEC2"
		},
		{
			"bufferView":6,
			"componentType":5123,
			"count":3288,
			"type":"SCALAR"
		},
		{
			"bufferView":7,
			"componentType":5126,
			"count":24,
			"max":[
				0.8821700811386108,
				2.455376386642456,
				0.23390179872512817
			],
			"min":[
				0.7952984571456909,
				2.394597291946411,
				0.19274774193763733
			],
			"type":"VEC3"
		},
		{
			"bufferView":8,
			"componentType":5126,
			"count":24,
			"type":"VEC3"
		},
		{
			"bufferView":9,
			"componentType":5126,
			"count":24,
			"type":"VEC2"
		},
		{
			"bufferView":10,
			"componentType":5123,
			"count":36,
			"type":"SCALAR"
		},
		{
			"bufferView":11,
			"componentType":5126,
			"count":140,
			"max":[
				0.9937713742256165,
				3.2243151664733887,
				0.2910209894180298
			],
			"min":[
				-0.7792384624481201,
				1.830247163772583,
				0.10287105292081833
			],
			"type":"VEC3"
		},
		{
			"bufferView":12,
			"componentType":5126,
			"count":140,
			"type":"VEC3"
		},
		{
			"bufferView":13,
			"componentType":5126,
			"count":140,
			"type":"VEC2"
		},
		{
			"bufferView":14,
			"componentType":5123,
			"count":294,
			"type":"SCALAR"
		},
		{
			"bufferView":15,
			"componentType":5126,
			"count":24,
			"max":[
				0.7601215243339539,
				2.3974316120147705,
				0.23806650936603546
			],
			"min":[
				0.6732498407363892,
				2.3366525173187256,
				0.19691243767738342
			],
			"type":"VEC3"
		},
		{
			"bufferView":16,
			"componentType":5126,
			"count":24,
			"type":"VEC3"
		},
		{
			"bufferView":17,
			"componentType":5126,
			"count":24,
			"type":"VEC2"
		},
		{
			"bufferView":18,
			"componentType":5126,
			"count":24,
			"max":[
				0.4532574415206909,
				2.2539186477661133,
				0.2494199573993683
			],
			"min":[
				0.3663857579231262,
				2.1931395530700684,
				0.20826587080955505
			],
			"type":"VEC3"
		},
		{
			"bufferView":19,
			"componentType":5126,
			"count":24,
			"type":"VEC3"
		},
		{
			"bufferView":20,
			"componentType":5126,
			"count":24,
			"type":"VEC2"
		},
		{
			"bufferView":21,
			"componentType":5126,
			"count":20,
			"max":[
				0.9465447664260864,
				3.1879429817199707,
				0.28782975673675537
			],
			"min":[
				-0.7327858209609985,
				1.8730387687683105,
				0.17252589762210846
			],
			"type":"VEC3"
		},
		{
			"bufferView":22,
			"componentType":5126,
			"count":20,
			"type":"VEC3"
		},
		{
			"bufferView":23,
			"componentType":5126,
			"count":20,
			"type":"VEC2"
		},
		{
			"bufferView":24,
			"componentType":5123,
			"count":54,
			"type":"SCALAR"
		}
	],
	"bufferViews":[
		{
			"buffer":0,
			"byteLength":1344,
			"byteOffset":0,
			"target":34962
		},
		{
			"buffer":0,
			"byteLength":1344,
			"byteOffset":1344,
			"target":34962
		},
		{
			"buffer":0,
			"byteLength":528,
			"byteOffset":2688,
			"target":34963
		},
		{
			"buffer":0,
			"byteLength":13812,
			"byteOffset":3216,
			"target":34962
		},
		{
			"buffer":0,
			"byteLength":13812,
			"byteOffset":17028,
			"target":34962
		},
		{
			"buffer":0,
			"byteLength":9208,
			"byteOffset":30840,
			"target":34962
		},
		{
			"buffer":0,
			"byteLength":6576,
			"byteOffset":40048,
			"target":34963
		},
		{
			"buffer":0,
			"byteLength":288,
			"byteOffset":46624,
			"target":34962
		},
		{
			"buffer":0,
			"byteLength":288,
			"byteOffset":46912,
			"target":34962
		},
		{
			"buffer":0,
			"byteLength":192,
			"byteOffset":47200,
			"target":34962
		},
		{
			"buffer":0,
			"byteLength":72,
			"byteOffset":47392,
			"target":34963
		},
		{
			"buffer":0,
			"byteLength":1680,
			"byteOffset":47464,
			"target":34962
		},
		{
			"buffer":0,
			"byteLength":1680,
			"byteOffset":49144,
			"target":34962
		},
		{
			"buffer":0,
			"byteLength":1120,
			"byteOffset":50824,
			"target":34962
		},
		{
			"buffer":0,
			"byteLength":588,
			"byteOffset":51944,
			"target":34963
		},
		{
			"buffer":0,
			"byteLength":288,
			"byteOffset":52532,
			"target":34962
		},
		{
			"buffer":0,
			"byteLength":288,
			"byteOffset":52820,
			"target":34962
		},
		{
			"buffer":0,
			"byteLength":192,
			"byteOffset":53108,
			"target":34962
		},
		{
			"buffer":0,
			"byteLength":288,
			"byteOffset":53300,
			"target":34962
		},
		{
			"buffer":0,
			"byteLength":288,
			"byteOffset":53588,
			"target":34962
		},
		{
			"buffer":0,
			"byteLength":192,
			"byteOffset":53876,
			"target":34962
		},
		{
			"buffer":0,
			"byteLength":240,
			"byteOffset":54068,
			"target":34962
		},
		{
			"buffer":0,
			"byteLength":240,
			"byteOffset":54308,
			"target":34962
		},
		{
			"buffer":0,
			"byteLength":160,
			"byteOffset":54548,
			"target":34962
		},
		{
			"buffer":0,
			"byteLength":108,
			"byteOffset":54708,
			"target":34963
		}
	],
	"buffers":[
		{
			"byteLength":54816,
			"uri":"hand_combined.bin"
		}
	]
}
